<svg width="24" height="22" viewBox="0 0 24 22" fill="none" xmlns="http://www.w3.org/2000/svg">
<path d="M4.52461 6.26777C3.97392 7.00816 3.62274 8.28816 3.62274 10.4734C3.62274 16.8779 5.59336 18.8485 11.9978 18.8485C18.4023 18.8485 20.373 16.8779 20.373 10.4734C20.373 4.8283 18.1862 2.58536 13.2819 2.13284C12.111 2.0248 9.99572 2.56245 9.88657 3.7332V3.7332M4.52461 6.26777C4.3406 4.43725 4.39499 2.46592 6.08471 2.46592C6.97966 2.46592 7.59811 2.46592 8.12835 2.46592C8.9261 2.46592 9.6343 2.97639 9.88657 3.7332V3.7332M4.52461 6.26777C6.4206 3.71869 9.45046 8.41092 9.88657 3.7332" stroke="#292D32" stroke-width="1.35177" stroke-linecap="round" stroke-linejoin="round"/>
<circle cx="8.70489" cy="10.999" r="0.929343" fill="#292D32"/>
<circle cx="12.5134" cy="10.999" r="0.929343" fill="#292D32"/>
<circle cx="16.1403" cy="10.999" r="0.929343" fill="#292D32"/>
</svg>
